<svg fill="#000000" xmlns="http://www.w3.org/2000/svg" xmlns:xlink="http://www.w3.org/1999/xlink" version="1.1" x="0px" y="0px" viewBox="0 0 100 100" enable-background="new 0 0 100 100" xml:space="preserve"><path d="M43.6,9.2l-2.4,13.6h-9.1l2.4-13.6c0.4-2.5,2.8-4.5,5.3-4.5S44,6.7,43.6,9.2z"/><path d="M38,40.9l-8.8,49.9c-0.4,2.5-2.8,4.5-5.3,4.5s-4.2-2-3.7-4.5l8.8-49.9H38z"/><path d="M79.9,9.2l-8.8,49.9H62l8.8-49.9c0.4-2.5,2.8-4.5,5.3-4.5C78.6,4.7,80.3,6.7,79.9,9.2z"/><path d="M58.8,77.2h9.1l-2.4,13.6c-0.4,2.5-2.8,4.5-5.3,4.5s-4.2-2-3.7-4.5L58.8,77.2z"/><path d="M63.1,27.3l-1.6,9.1H11.6c-2.5,0-4.2-2-3.7-4.5s2.8-4.5,5.3-4.5H63.1z"/><path d="M98.5,31.9c-0.4,2.5-2.8,4.5-5.3,4.5H79.6l1.6-9.1h13.6C97.3,27.3,98.9,29.4,98.5,31.9z"/><path d="M6.8,63.6h13.6l-1.6,9.1H5.2c-2.5,0-4.2-2-3.7-4.5C1.9,65.6,4.3,63.6,6.8,63.6z"/><path d="M92.1,68.1c-0.4,2.5-2.8,4.5-5.3,4.5H36.9l1.6-9.1h49.8C90.9,63.6,92.5,65.6,92.1,68.1z"/></svg>